<svg xmlns="http://www.w3.org/2000/svg" fill="whitesmoke" viewBox="0 0 48 48" width="256px" height="256px"><path d="M 23 2 C 18.385291 2 14.559689 5.5140788 14.058594 10 L 12 10 C 9.689 10 7.7654375 11.732203 7.5234375 14.033203 L 5.0234375 38.033203 C 4.8924375 39.297203 5.30325 40.565672 6.15625 41.513672 C 7.00825 42.458672 8.227 43 9.5 43 L 38.5 43 C 39.773 43 40.99075 42.457719 41.84375 41.511719 C 42.69575 40.565719 43.107563 39.297203 42.976562 38.033203 L 40.476562 14.033203 C 40.234563 11.733203 38.311 10 36 10 L 33.953125 10 C 33.984125 10.33 34 10.664 34 11 L 34 17 C 34 17.552 33.552 18 33 18 C 32.448 18 32 17.552 32 17 L 32 16.5 L 32 11 C 32 6.0472805 27.952719 2 23 2 z M 23 5 C 25.989762 5 28.439942 7.1510842 28.912109 10 L 19.132812 10 C 19.048812 10.32 19 10.654 19 11 L 19 17 C 19 17.552 18.552 18 18 18 C 17.448 18 17 17.552 17 17 L 17 16.5 L 17 11 C 17 7.6687195 19.668719 5 23 5 z"/></svg>