<svg xmlns="http://www.w3.org/2000/svg" fill="whitesmoke" viewBox="0 0 48 48" width="48px" height="48px"><path d="M 27.5 4 C 25.019 4 23 6.019 23 8.5 L 23 21.5 C 23 22.053 23.305969 22.561266 23.792969 22.822266 C 24.014969 22.940266 24.257 23 24.5 23 C 24.791 23 25.081031 22.916047 25.332031 22.748047 L 30.953125 19 L 38.5 19 C 40.981 19 43 16.981 43 14.5 L 43 8.5 C 43 6.019 40.981 4 38.5 4 L 27.5 4 z M 13.396484 4.0117188 C 12.897172 3.9728906 12.383406 4.0282031 11.878906 4.1894531 L 9.7265625 4.8789062 C 7.5915625 5.5609063 5.9557344 7.3885469 5.4277344 9.6855469 C 4.1727344 15.143547 5.6784063 21.788141 9.9414062 29.619141 C 14.201406 37.440141 18.869266 42.142562 23.947266 43.726562 C 26.098266 44.397562 28.424734 43.805875 30.052734 42.171875 L 31.6875 40.529297 C 33.2135 38.997297 33.435078 36.504266 32.205078 34.697266 L 29.740234 31.076172 C 28.682234 29.522172 26.803125 28.8625 25.078125 29.4375 L 21.332031 30.6875 C 20.832031 30.8545 20.271187 30.766734 19.867188 30.427734 C 18.342188 29.146734 17.048328 27.591625 15.986328 25.765625 C 14.922328 23.935625 14.235781 22.080219 13.925781 20.199219 C 13.844781 19.707219 14.032531 19.209234 14.394531 18.865234 L 17.607422 15.816406 C 18.969422 14.524406 19.383766 12.446687 18.634766 10.679688 L 16.916016 6.625 C 16.268016 5.0965 14.894422 4.1282031 13.396484 4.0117188 z"/></svg>